<?xml version="1.0" standalone="no"?>
<!DOCTYPE svg PUBLIC "-//W3C//DTD SVG 20010904//EN"
 "http://www.w3.org/TR/2001/REC-SVG-20010904/DTD/svg10.dtd">
<svg version="1.0" xmlns="http://www.w3.org/2000/svg"
 width="736.000000pt" height="980.000000pt" viewBox="0 0 736.000000 980.000000"
 preserveAspectRatio="xMidYMid meet">

<g transform="translate(0.000000,980.000000) scale(0.100000,-0.100000)"
fill="#000000" stroke="none">
<path d="M3653 9416 c-100 -83 -362 -230 -499 -279 -97 -35 -151 -43 -427 -67
-213 -18 -247 -23 -337 -54 -55 -18 -125 -49 -156 -67 -75 -45 -172 -150 -208
-224 l-29 -60 -141 0 c-174 0 -268 -19 -426 -84 -189 -78 -361 -210 -457 -351
-71 -104 -149 -287 -177 -418 -36 -163 -38 -333 -43 -3588 l-5 -3202 -49 -38
c-59 -47 -168 -193 -175 -237 l-6 -32 26 40 c14 22 26 44 26 48 0 17 99 139
131 164 38 28 99 57 106 49 3 -2 -15 -33 -40 -68 -24 -35 -57 -85 -72 -113
-44 -78 -93 -125 -131 -125 -18 0 -36 -4 -39 -10 -3 -5 3 -10 14 -10 57 0 127
55 166 130 13 25 33 56 45 70 l22 25 -7 -25 c-66 -241 -66 -240 -100 -226 -25
9 -29 3 -32 -49 -2 -31 1 -45 6 -36 5 7 14 10 20 7 6 -4 11 -3 11 3 0 5 -5 13
-10 16 -20 12 -9 33 19 38 37 8 41 16 81 162 37 135 79 214 113 215 15 0 5
-26 -24 -65 -37 -49 -58 -118 -66 -217 -7 -87 0 -102 55 -125 33 -14 39 -27
23 -52 -7 -10 -5 -18 6 -26 14 -10 14 -14 0 -41 -13 -26 -13 -33 -1 -56 18
-35 58 -46 83 -24 22 20 31 12 31 -26 0 -17 5 -28 14 -28 8 0 24 -9 37 -20 33
-26 10 -26 -70 2 -47 17 -79 37 -118 75 -37 36 -55 48 -60 39 -5 -7 -17 -18
-28 -24 -15 -8 -16 -11 -5 -12 9 0 21 5 28 12 9 9 15 9 24 0 9 -9 7 -16 -7
-32 -26 -28 -56 -25 -87 10 -24 27 -28 29 -58 19 -51 -18 -157 -6 -215 24 -73
38 -133 92 -118 107 8 9 21 6 55 -14 49 -28 58 -31 58 -17 0 5 -8 12 -19 16
-10 3 -31 17 -45 30 -20 19 -34 23 -52 19 -46 -12 -41 -34 17 -87 76 -71 145
-100 234 -101 38 0 80 3 91 8 17 6 29 1 53 -23 17 -17 36 -31 41 -31 4 0 22
12 39 26 l31 26 47 -35 c118 -86 298 -89 411 -7 23 16 45 30 48 30 3 0 17 -9
31 -20 30 -24 85 -26 103 -5 17 21 24 19 71 -14 22 -17 61 -37 87 -45 93 -31
246 0 303 60 29 31 34 30 76 -6 18 -17 44 -30 56 -30 19 1 18 3 -8 14 -33 15
-70 47 -78 68 -4 10 -8 10 -16 -2 -6 -8 -11 -10 -11 -5 1 6 7 18 14 28 14 18
15 18 42 0 26 -17 28 -17 21 0 -9 23 9 67 27 67 9 0 23 -14 31 -31 15 -29 15
-32 -2 -52 -18 -20 -17 -20 2 -13 11 4 22 8 25 8 39 3 42 -38 4 -53 -15 -5
-24 -12 -22 -15 3 -2 17 1 31 7 23 10 35 8 94 -21 117 -58 240 -52 359 16 l42
24 40 -22 c39 -22 42 -22 76 -6 24 12 37 14 42 7 3 -6 34 -24 68 -40 59 -29
64 -30 166 -23 109 7 190 29 239 64 34 24 45 25 60 6 20 -24 66 -29 101 -11
29 15 33 15 58 -3 51 -34 87 -45 182 -53 114 -9 175 1 254 41 53 27 60 28 79
15 29 -20 56 -19 95 5 l33 20 29 -20 c49 -35 130 -57 240 -64 l106 -7 75 38
c71 36 77 37 102 23 23 -13 30 -13 74 6 l48 20 42 -26 c94 -60 237 -64 351
-10 74 35 80 35 118 15 39 -20 45 -19 93 15 24 18 47 28 54 23 7 -4 31 -21 54
-39 99 -75 254 -70 370 14 37 26 46 27 63 7 21 -25 74 -18 107 13 l30 27 18
-24 c10 -13 43 -35 74 -50 48 -22 69 -26 151 -26 104 0 176 23 221 71 12 13
28 24 36 24 7 0 13 7 13 15 0 8 4 15 9 15 5 0 12 11 15 25 7 29 31 33 44 8 13
-25 4 -43 -19 -43 -11 0 -17 -5 -14 -10 6 -10 68 19 62 30 -20 38 -44 70 -52
70 -6 0 -16 -13 -23 -29 -33 -74 -140 -152 -230 -166 l-37 -6 25 20 c14 12 31
26 38 31 6 6 12 22 12 35 0 28 12 32 30 10 19 -23 56 -18 79 11 25 32 26 42 5
65 -15 17 -15 20 0 43 10 15 12 27 6 31 -16 10 -34 -47 -21 -67 16 -25 14 -43
-7 -61 -24 -22 -48 -22 -61 0 -14 25 -43 6 -53 -33 -4 -17 -21 -40 -39 -53
l-31 -23 -56 39 c-31 22 -58 48 -60 58 -7 43 -11 48 -28 34 -14 -11 -14 -13 0
-21 9 -5 16 -17 16 -28 0 -11 17 -28 45 -44 43 -26 58 -46 33 -46 -65 0 -198
81 -198 121 0 10 -5 19 -11 19 -6 0 -9 -7 -5 -15 3 -8 -6 -28 -20 -45 -32 -38
-75 -40 -109 -6 l-24 24 -26 -28 c-30 -31 -133 -74 -162 -68 -15 4 -12 8 15
24 18 11 35 30 38 44 11 48 13 52 35 45 19 -6 20 -5 9 15 -16 30 -33 21 -48
-26 -11 -35 -64 -93 -85 -94 -5 0 -28 14 -52 30 -49 33 -55 36 -55 18 0 -7 20
-22 43 -33 41 -19 41 -20 14 -23 -37 -4 -124 38 -168 82 -32 31 -37 34 -41 18
-3 -11 -22 -32 -43 -48 l-37 -28 -37 21 c-20 11 -37 28 -39 36 -4 20 25 29 47
15 15 -9 26 -7 55 10 47 28 57 28 90 -3 15 -14 38 -25 51 -25 27 0 75 19 75
30 0 18 -15 17 -41 -2 l-29 -22 -27 20 c-24 18 -27 26 -24 70 8 113 9 108 -24
109 -28 0 -31 4 -43 55 -39 157 -73 250 -112 299 -22 28 -40 53 -40 56 0 4 16
5 37 3 51 -4 87 -60 146 -233 67 -195 78 -217 120 -240 31 -17 40 -17 75 -6
29 10 44 10 60 2 11 -6 27 -11 34 -11 7 1 -2 7 -19 15 -18 8 -33 19 -33 25 0
6 -12 2 -26 -9 -37 -29 -53 -26 -100 17 -28 26 -46 55 -58 92 -41 130 -100
277 -124 309 -19 26 -22 35 -12 41 8 5 94 7 193 6 l179 -3 23 -29 c129 -160
148 -388 37 -439 -24 -10 -29 -25 -10 -25 21 0 88 83 95 119 20 98 -12 226
-78 314 l-40 52 58 3 c67 4 68 3 113 -103 39 -95 58 -205 43 -245 -12 -33 0
-41 17 -11 23 44 4 150 -54 290 -25 62 -29 85 -9 59 5 -7 26 -50 47 -96 33
-71 39 -97 47 -190 9 -111 22 -139 59 -127 13 4 16 0 12 -25 -2 -16 0 -30 6
-30 14 0 22 62 10 77 -6 7 -20 10 -33 7 -22 -5 -23 -3 -29 73 -9 107 -31 186
-72 261 -25 45 -31 62 -21 62 23 0 75 -90 123 -212 63 -160 92 -214 132 -249
32 -28 40 -31 81 -25 56 8 58 8 96 2 17 -3 21 -3 10 0 -11 4 -28 13 -38 22
-14 12 -22 13 -43 4 -41 -19 -58 -14 -105 30 -36 35 -51 62 -83 148 -21 58
-57 141 -80 185 -22 44 -41 84 -41 90 0 6 68 9 184 8 l185 -3 23 -27 c88 -106
121 -313 62 -387 -24 -30 -46 -33 -65 -8 -8 9 -14 12 -14 5 0 -7 11 -23 24
-37 29 -28 40 -23 80 38 23 34 26 49 26 128 0 97 -25 178 -75 244 -15 19 -24
38 -20 43 8 14 77 1 98 -17 50 -44 107 -188 107 -272 0 -55 -20 -87 -66 -106
-34 -14 -42 -28 -24 -39 6 -3 10 -1 10 5 0 6 16 18 35 25 49 21 58 45 53 136
-4 65 -11 92 -43 156 -21 43 -45 86 -53 96 -14 15 -13 17 6 17 15 0 29 -13 44
-41 13 -23 29 -52 36 -65 7 -13 24 -72 37 -131 15 -64 32 -114 42 -124 22 -20
73 -34 73 -19 0 21 -6 25 -35 25 -29 0 -30 2 -58 105 -47 176 -48 175 53 10
30 -49 87 -90 124 -90 31 0 31 1 31 47 0 37 4 48 17 51 24 5 32 -33 15 -68
-12 -23 -12 -30 -2 -32 7 -2 28 -23 47 -48 26 -34 42 -46 68 -50 l34 -5 -26
-17 c-34 -22 -52 -23 -68 -3 -7 9 -23 15 -34 13 -18 -3 -21 -9 -18 -44 3 -39
0 -43 -35 -65 -37 -23 -72 -26 -105 -8 -23 12 -24 76 -2 100 13 14 13 22 4 39
-8 16 -15 19 -23 11 -7 -7 -6 -15 3 -26 11 -14 10 -17 -8 -22 -17 -4 -20 -10
-16 -33 4 -15 1 -31 -5 -34 -16 -10 -14 -36 2 -30 8 3 20 -2 27 -11 7 -8 23
-15 36 -15 12 0 26 -5 30 -12 9 -14 -73 -3 -92 13 -9 7 -14 4 -19 -10 -3 -11
-18 -29 -32 -41 -21 -16 -29 -17 -47 -8 -19 10 -20 10 -7 -5 20 -25 39 -21 74
14 30 30 34 31 72 22 68 -17 159 -4 223 33 47 28 132 106 132 123 0 16 -35 31
-72 31 -58 0 -112 65 -110 134 2 51 -18 81 -50 73 -29 -8 -38 -2 -75 53 -38
55 -85 104 -135 137 l-38 26 0 3126 c0 1846 -4 3210 -10 3331 -11 225 -26 324
-70 460 -101 308 -312 531 -615 649 -149 59 -235 74 -407 75 l-147 1 -35 70
c-63 126 -190 229 -345 279 -108 35 -160 43 -386 61 -247 19 -297 28 -409 71
-138 53 -369 184 -460 261 -22 18 -43 33 -47 33 -4 0 -20 -11 -36 -24z m80
-29 c116 -93 354 -223 498 -271 95 -32 165 -42 409 -61 274 -21 405 -58 532
-151 67 -50 114 -107 154 -191 l34 -71 119 5 c70 4 151 1 201 -6 253 -37 515
-184 664 -371 145 -185 222 -397 248 -691 13 -151 24 -6517 11 -6530 -7 -7
-1738 -10 -5470 -9 l-363 0 0 3023 c0 3076 5 3555 36 3717 46 233 177 475 326
602 220 186 480 277 762 266 l113 -4 34 70 c50 103 140 192 249 244 112 54
215 78 385 92 226 18 377 38 451 60 103 31 335 151 454 235 58 40 106 74 108
74 2 1 22 -14 45 -32z m-1715 -8367 l43 0 -19 -27 c-40 -57 -121 -257 -109
-269 2 -3 17 30 32 73 42 118 59 155 88 189 25 29 71 49 89 38 4 -3 -13 -34
-37 -70 -44 -64 -77 -154 -107 -289 -12 -57 -15 -60 -45 -63 -35 -3 -46 -22
-14 -22 51 0 71 28 91 125 17 83 47 175 68 206 54 82 76 109 89 109 16 0 14
-4 -34 -71 -46 -64 -62 -107 -69 -186 -7 -78 10 -134 47 -154 22 -11 22 -10
-4 20 -24 29 -27 41 -27 106 0 88 16 137 71 216 40 57 68 75 103 67 12 -2 8
-13 -20 -48 -20 -25 -48 -70 -63 -100 -23 -48 -26 -68 -26 -155 0 -106 10
-134 60 -166 27 -17 94 -29 101 -17 4 5 33 6 70 2 93 -9 98 -4 218 266 52 116
120 220 143 220 22 0 15 -23 -21 -67 -38 -48 -96 -212 -96 -272 0 -44 -33
-103 -54 -95 -11 4 -16 -8 -22 -52 -6 -55 -6 -59 22 -80 35 -28 45 -22 16 9
-30 32 -31 97 -2 104 28 7 47 48 60 124 20 123 46 200 82 245 13 16 32 41 41
57 10 15 24 27 32 27 12 0 10 -9 -9 -37 -82 -124 -98 -163 -104 -249 l-5 -83
42 -42 c25 -26 39 -49 36 -57 -3 -8 3 -21 14 -29 24 -16 18 -39 -11 -46 -15
-4 -18 -11 -13 -29 4 -13 14 -29 23 -35 22 -18 72 -16 94 3 14 14 20 14 33 4
17 -14 20 -46 5 -55 -18 -11 -10 -24 17 -27 31 -4 41 -23 17 -32 -21 -8 -108
17 -150 43 -28 17 -94 128 -94 159 0 6 -4 12 -8 12 -10 0 -52 -56 -52 -70 0
-5 -6 -10 -12 -10 -7 0 -2 -9 12 -20 18 -14 34 -18 56 -14 23 4 33 1 37 -10
12 -30 -70 -49 -93 -21 -22 26 -49 28 -74 4 -50 -48 -152 -72 -212 -49 -42 16
-88 60 -94 89 -4 19 -12 27 -33 29 -15 2 -27 -1 -27 -7 0 -6 -10 -11 -22 -11
-17 0 -19 -3 -10 -12 9 -9 17 -9 36 1 30 16 46 8 46 -24 0 -14 7 -26 19 -30
10 -3 27 -15 37 -27 l19 -21 -36 6 c-53 8 -128 47 -147 75 -12 19 -13 27 -4
30 6 2 12 15 12 28 0 14 -4 22 -10 19 -5 -3 -10 -15 -10 -26 0 -32 -23 -17
-50 34 -14 25 -29 49 -33 53 -4 4 -22 -10 -40 -31 -39 -45 -67 -43 -67 3 0 15
-6 36 -13 46 -12 16 -13 9 -9 -44 4 -53 2 -66 -14 -77 -24 -18 -54 -16 -75 3
-17 16 -19 15 -29 -12 -16 -46 -23 -54 -62 -76 l-36 -21 -41 32 c-26 21 -41
41 -41 55 0 12 -6 31 -14 41 -12 17 -16 18 -31 5 -17 -14 -16 -15 6 -20 16 -4
25 -15 30 -37 3 -17 19 -43 35 -58 l29 -27 -32 6 c-50 8 -121 46 -148 78 -15
18 -25 24 -25 15 0 -19 -43 -47 -71 -47 -12 0 -37 16 -55 36 -19 19 -34 29
-34 22 0 -29 -112 -93 -181 -104 -51 -8 -47 6 11 36 24 12 42 30 48 50 12 32
29 39 38 15 4 -8 13 -15 21 -15 9 0 3 10 -15 25 -39 32 -49 32 -57 -5 -5 -22
-21 -40 -60 -66 l-54 -36 -35 27 c-20 15 -37 39 -41 56 -8 37 -30 47 -54 25
-10 -9 -25 -16 -35 -16 -21 0 -39 45 -27 68 5 9 8 42 6 72 -2 52 -3 55 -33 62
-60 16 -73 64 -51 183 12 66 44 133 86 183 25 29 34 33 70 30 l42 -3 -34 -54
c-73 -115 -91 -253 -46 -344 33 -67 58 -81 154 -84 131 -3 157 20 235 219 46
114 98 222 125 256 5 6 16 12 25 12 14 0 14 -2 0 -17 -45 -51 -88 -185 -88
-271 0 -27 -3 -64 -6 -81 -5 -26 -11 -31 -35 -31 -31 0 -44 -13 -32 -33 4 -6
6 -20 4 -31 -1 -11 2 -16 8 -12 6 4 11 16 11 27 0 10 6 19 13 19 7 0 22 6 32
14 16 12 20 32 26 122 6 110 15 140 69 234 11 19 21 39 23 45 3 5 7 7 11 3 4
-3 3 -14 -2 -25 -22 -41 -70 -161 -82 -206 -18 -66 -2 -118 44 -145 25 -15 33
-26 29 -40 -3 -12 1 -22 11 -25 20 -8 20 -26 1 -47 -25 -28 11 -100 50 -100 4
0 -5 14 -19 31 -31 37 -33 54 -6 76 19 17 19 17 1 38 -11 11 -21 31 -23 45 -2
17 -10 26 -26 28 -15 2 -29 16 -39 37 -15 31 -15 39 0 100 9 37 34 106 55 153
l38 87 63 3 63 3 -45 -63 c-69 -97 -99 -222 -73 -310 26 -92 106 -144 168
-112 26 14 34 14 66 1 21 -8 44 -12 53 -8 28 11 81 61 77 73 -2 6 -20 -5 -41
-25 -42 -43 -63 -46 -102 -15 l-27 21 -17 -20 c-24 -30 -42 -32 -84 -11 -74
37 -102 133 -73 249 20 75 38 113 86 174 l35 44 115 3 c63 2 131 3 150 1 19
-1 54 -2 78 -3z m668 0 l34 0 -35 -46 c-45 -58 -50 -69 -120 -234 -32 -74 -64
-143 -73 -152 -19 -23 -38 -23 -51 -1 -5 10 -13 14 -18 10 -4 -5 2 -17 15 -27
12 -10 22 -21 22 -24 0 -10 -48 -6 -75 6 -21 9 -31 9 -47 -1 -26 -16 -32 -9
-33 40 -1 29 4 43 17 50 10 5 18 18 18 29 0 36 21 32 65 -14 30 -32 46 -43 51
-34 4 7 -2 18 -15 27 -13 9 -33 26 -46 39 -27 27 -52 28 -60 3 -3 -10 -19 -24
-35 -31 -31 -13 -48 -40 -25 -40 10 0 15 -10 15 -31 0 -28 -2 -30 -32 -27 -56
5 -73 43 -73 161 0 91 3 107 26 152 15 28 46 71 69 97 l41 47 152 3 c84 2 158
2 165 1 8 -2 29 -3 48 -3z m704 4 c0 -3 -13 -34 -29 -68 -32 -69 -51 -162 -51
-257 0 -99 -6 -112 -46 -106 -32 5 -39 0 -36 -24 1 -4 2 -24 3 -45 1 -22 11
-49 21 -60 19 -22 19 -22 -10 -43 -38 -27 -78 -27 -94 -1 -18 28 -27 25 -44
-15 -8 -19 -18 -35 -22 -35 -4 0 -20 -11 -36 -25 -16 -14 -35 -25 -41 -25 -18
0 -67 49 -60 60 11 18 -5 47 -32 59 -22 10 -29 9 -48 -9 -16 -15 -30 -19 -48
-15 -37 10 -43 36 -13 58 31 22 32 31 6 59 -12 14 -18 29 -14 43 4 18 0 24
-20 29 -41 10 -59 58 -54 136 5 72 32 139 90 225 32 48 35 50 86 53 28 2 52 1
52 -2 0 -3 -15 -27 -34 -53 -18 -27 -48 -84 -66 -128 -55 -132 -42 -247 33
-300 26 -18 78 -20 95 -3 9 9 18 9 37 0 46 -21 75 -14 115 26 41 40 76 133
100 264 6 36 26 95 44 130 34 65 31 63 109 77 4 0 7 -2 7 -5z m15 -77 c-46
-100 -68 -201 -55 -264 13 -73 19 -83 49 -83 36 0 42 -7 30 -37 -7 -20 -6 -28
8 -39 15 -11 16 -16 5 -31 -25 -36 -24 -45 4 -74 40 -41 72 -48 94 -19 20 27
40 19 40 -15 0 -19 9 -28 35 -39 48 -20 46 -40 -2 -32 -73 13 -133 38 -160 66
-55 56 -61 66 -68 103 -8 39 -30 50 -43 20 -14 -33 -47 -83 -54 -83 -12 0 -10
24 3 37 7 7 1 14 -22 22 -27 9 -30 13 -18 27 10 13 10 19 0 36 -15 24 -2 38
37 38 28 0 32 10 36 96 9 166 37 268 94 337 27 31 23 12 -13 -66z m691 18 c14
-29 40 -115 60 -191 36 -142 67 -211 106 -239 27 -18 71 -20 98 -3 16 10 24
10 40 0 24 -15 65 -16 90 -2 32 17 70 92 70 138 0 91 -34 190 -100 287 -46 68
-46 65 12 65 51 -1 54 -3 85 -43 17 -23 47 -73 67 -112 29 -57 36 -81 36 -130
0 -67 -24 -119 -59 -130 -15 -4 -21 -15 -21 -34 0 -16 -10 -40 -21 -55 -21
-27 -21 -27 -1 -32 11 -3 24 -16 30 -29 10 -20 7 -24 -18 -35 -25 -10 -33 -9
-59 9 -16 12 -34 21 -39 21 -16 0 -42 -41 -42 -66 0 -20 -41 -64 -60 -64 -17
0 -86 64 -98 91 -14 34 -27 37 -42 9 -13 -24 -51 -26 -85 -4 -15 10 -25 12
-25 5 0 -14 53 -41 80 -41 12 0 29 8 38 17 16 16 17 15 20 -8 2 -15 16 -32 40
-46 l37 -22 -36 -1 c-44 0 -112 23 -156 53 -27 18 -33 29 -33 58 0 27 5 38 18
41 14 4 17 16 17 64 l0 59 -35 0 -35 0 -12 135 c-11 136 -26 195 -63 255 -23
37 -17 43 37 37 31 -4 38 -10 59 -57z m268 55 c41 0 41 0 93 -88 76 -129 101
-249 69 -327 -12 -28 -41 -55 -60 -55 -2 0 -12 7 -21 16 -15 15 -15 18 1 35
17 18 15 21 -32 64 -27 25 -51 45 -55 45 -3 0 -11 -11 -17 -25 -6 -13 -25 -31
-41 -39 -27 -14 -29 -19 -24 -52 6 -34 5 -36 -14 -25 -25 13 -41 53 -83 206
-27 98 -56 176 -88 237 -4 8 155 17 202 11 16 -2 47 -3 70 -3z m731 -43 c96
-112 133 -274 83 -367 -22 -40 -29 -45 -59 -45 -38 0 -50 23 -24 48 22 23 19
31 -20 50 -30 14 -35 15 -35 2 0 -8 6 -15 13 -15 7 0 18 -5 25 -12 9 -9 8 -16
-5 -30 -14 -15 -15 -23 -6 -37 16 -25 6 -32 -23 -19 -18 8 -31 8 -49 0 -14 -7
-35 -12 -45 -12 -40 0 -96 84 -146 218 -32 84 -58 135 -105 204 l-39 57 108 3
c59 2 149 2 199 0 l93 -3 35 -42z m70 31 c1 -2 20 -28 42 -58 54 -74 73 -128
73 -206 0 -70 -10 -99 -44 -126 -11 -10 -16 -18 -11 -18 6 0 24 11 40 24 29
23 30 27 30 108 -1 93 -11 127 -65 208 -53 80 -53 80 -38 80 14 0 83 -93 105
-140 6 -14 23 -72 38 -130 32 -126 51 -170 77 -170 24 0 34 -26 18 -45 -7 -8
-10 -21 -6 -30 3 -8 -3 -19 -13 -25 -16 -8 -25 -3 -50 25 -17 19 -32 35 -35
35 -2 0 -14 -19 -25 -42 -43 -87 -159 -178 -228 -178 -31 0 -29 13 4 31 14 8
32 29 40 47 11 26 18 32 31 26 45 -19 68 -16 82 12 14 25 13 28 -8 42 -12 8
-23 24 -23 36 -1 18 -2 18 -6 3 -3 -10 3 -27 12 -37 10 -11 15 -26 12 -35 -7
-17 -42 -20 -52 -5 -14 23 -45 9 -61 -27 -9 -21 -31 -51 -50 -67 l-34 -28 -39
25 c-29 19 -40 35 -45 61 -8 41 -16 44 -42 15 -14 -16 -27 -20 -51 -16 -40 7
-43 0 -6 -14 22 -8 32 -6 54 10 31 23 46 13 29 -19 -9 -18 -6 -22 30 -36 22
-9 40 -20 40 -25 0 -12 1 -12 -82 7 -56 13 -77 23 -107 53 l-37 37 -17 -23
c-36 -47 -117 -39 -117 12 0 14 -4 25 -10 25 -5 0 -10 9 -10 20 0 10 -9 24
-20 30 -24 13 -26 38 -5 46 8 4 15 19 15 35 0 20 8 33 29 45 16 10 34 28 40
41 15 32 14 121 -1 164 -16 47 -76 148 -106 182 -24 26 -25 27 -5 27 14 0 35
-22 71 -75 53 -79 76 -142 87 -240 10 -89 23 -124 50 -131 18 -4 24 -15 28
-47 5 -31 2 -45 -9 -53 -8 -7 -12 -19 -8 -28 5 -14 9 -12 25 8 16 20 18 34 13
80 -6 50 -9 56 -30 56 -30 0 -40 20 -48 95 -10 85 -42 186 -71 226 -67 92 -75
109 -51 109 23 0 74 -69 118 -160 123 -256 150 -309 162 -319 8 -7 27 -11 42
-11 16 1 63 1 104 1 86 -1 126 17 161 71 18 29 20 45 16 123 -5 103 -23 151
-86 234 -22 30 -38 57 -36 62 5 6 64 -5 70 -13z m-3796 -70 c-23 -46 -57 -123
-76 -173 -49 -126 -60 -145 -107 -187 -45 -41 -61 -45 -86 -23 -16 14 -20 14
-47 -1 -29 -17 -30 -17 -70 15 -25 20 -44 46 -52 70 -28 96 0 239 67 330 l37
51 188 0 187 0 -41 -82z m1897 40 c-13 -24 -32 -70 -41 -103 -65 -233 -98
-315 -127 -315 -6 0 -8 13 -4 34 6 30 3 36 -29 60 -41 32 -49 13 -10 -24 16
-15 22 -27 16 -33 -6 -6 -7 -23 -4 -40 6 -27 4 -29 -18 -22 -13 4 -32 17 -41
29 l-18 21 -6 -22 c-6 -21 -32 -39 -42 -28 -3 3 1 13 10 22 12 11 14 22 8 38
-7 18 -1 30 30 64 21 22 33 44 28 47 -5 3 -24 -9 -41 -28 -18 -19 -39 -37 -47
-40 -12 -4 -13 -9 -2 -27 26 -44 4 -74 -37 -51 -90 47 -56 263 67 428 l24 32
155 0 154 0 -25 -42z m270 20 c-49 -67 -70 -132 -74 -230 -4 -84 -1 -103 17
-142 12 -25 40 -61 63 -81 36 -34 44 -36 82 -31 53 8 73 8 117 0 50 -8 88 14
135 78 37 50 39 57 42 140 4 99 -13 166 -59 235 -16 23 -29 44 -29 48 0 3 19
5 43 3 42 -3 42 -4 80 -78 42 -85 64 -206 50 -275 -8 -35 -13 -40 -38 -43 -17
-2 -34 -7 -38 -11 -11 -11 2 -81 15 -81 5 0 6 15 2 35 -6 34 -5 35 24 35 47 0
56 20 55 123 -1 99 -25 188 -70 260 -19 30 -20 37 -8 37 43 0 90 -142 100
-300 4 -63 12 -121 17 -127 6 -7 21 -13 33 -13 21 0 23 -5 22 -50 -1 -41 -4
-50 -19 -50 -18 0 -25 -15 -10 -24 15 -9 0 -66 -21 -81 -42 -30 -116 -9 -101
28 3 9 10 17 15 17 5 0 14 11 19 25 5 14 14 25 20 25 20 0 23 -31 5 -50 -10
-11 -15 -20 -12 -20 14 0 57 24 57 32 0 13 -49 88 -58 88 -4 0 -15 -22 -25
-49 -31 -87 -104 -138 -224 -157 -53 -8 -56 6 -8 32 19 10 39 31 44 46 12 34
18 34 48 6 24 -22 24 -22 59 -3 19 10 37 29 40 41 7 25 -15 86 -28 78 -4 -3
-4 -14 2 -24 14 -27 12 -51 -7 -72 -23 -26 -52 -23 -63 7 -5 14 -13 25 -17 25
-12 0 -53 -43 -53 -56 0 -14 -72 -74 -89 -74 -25 0 -91 51 -97 75 -11 42 -58
59 -69 25 -8 -27 -28 -25 -62 4 -27 24 -28 26 -12 54 13 24 14 32 3 46 -7 11
-10 31 -7 51 5 31 3 34 -28 42 -42 11 -52 42 -45 144 5 80 29 152 71 219 23
36 29 40 66 40 41 0 41 0 25 -22z m302 -40 c47 -74 62 -121 62 -203 0 -76 -14
-126 -45 -163 -35 -41 -61 -46 -85 -15 -18 24 -20 24 -20 6 0 -11 7 -26 15
-33 37 -31 -4 -41 -57 -14 -20 10 -33 12 -37 6 -8 -14 -57 -26 -71 -17 -8 5
-6 12 5 25 11 12 14 26 9 44 -5 23 -3 26 19 26 16 0 26 7 30 20 4 16 2 18 -13
10 -10 -6 -30 -10 -44 -10 -31 0 -45 -19 -22 -32 18 -10 22 -43 5 -54 -19 -11
-53 15 -84 63 -27 43 -29 54 -29 132 1 99 25 173 75 234 l30 37 109 0 108 0
40 -62z m2788 41 c54 -26 142 -120 183 -195 39 -73 40 -94 3 -94 -37 0 -85 52
-145 156 -26 45 -57 90 -68 100 -11 10 -25 27 -30 36 -13 24 4 23 57 -3z
m-2231 -352 c11 -17 20 -42 21 -55 0 -12 9 -31 19 -42 25 -28 -1 -27 -31 1
l-22 21 -30 -22 c-37 -27 -55 -20 -42 16 13 33 13 34 -5 34 -22 0 -18 18 6 25
11 4 24 18 29 31 13 33 31 30 55 -9z m2675 -86 c0 -18 -96 -94 -148 -117 -29
-13 -67 -24 -85 -23 -27 0 -29 2 -11 9 39 16 94 76 94 104 0 30 14 34 29 9 9
-17 12 -16 53 4 47 24 68 28 68 14z m-1713 -78 c13 -19 12 -23 -8 -42 -43 -40
-64 -15 -37 44 13 29 25 28 45 -2z m-2647 -34 c0 -22 -5 -29 -19 -29 -26 0
-35 29 -15 51 21 24 34 16 34 -22z m666 -15 c-3 -8 -13 -14 -21 -14 -9 0 -13
-5 -10 -10 4 -7 12 -7 25 0 29 16 40 12 40 -15 0 -20 -6 -25 -35 -31 -55 -10
-117 40 -65 53 10 3 22 15 26 27 4 11 12 24 18 28 13 9 30 -18 22 -38z m1124
-19 c14 -17 75 -20 85 -5 10 17 25 11 25 -9 0 -43 -91 -91 -173 -91 -44 0 -48
23 -4 28 23 3 26 7 20 32 -10 53 18 80 47 45z m-2642 -7 c9 -9 18 -9 38 1 34
15 42 7 19 -19 -28 -31 -119 -72 -152 -68 -28 3 -28 4 15 26 32 17 42 28 42
47 0 26 18 33 38 13z m1412 3 c0 -15 -67 -61 -111 -76 -23 -8 -58 -15 -78 -15
l-36 1 24 19 c13 11 29 20 37 20 8 0 14 10 14 25 0 29 7 30 34 10 27 -20 49
-19 77 5 26 21 39 25 39 11z"/>
<path d="M3635 9329 c-132 -101 -394 -248 -505 -283 -83 -27 -188 -40 -421
-56 -200 -13 -345 -55 -455 -131 -66 -45 -150 -145 -180 -214 l-27 -62 -112 5
c-244 10 -495 -60 -678 -191 -193 -138 -336 -366 -387 -617 -39 -189 -41 -398
-47 -3598 l-5 -3092 2863 2 2864 3 3 2625 c3 2795 -6 3836 -33 4000 -47 279
-182 516 -379 662 -195 145 -426 214 -683 206 l-132 -5 -17 46 c-25 68 -95
162 -156 209 -122 93 -266 138 -493 152 -210 13 -253 18 -358 42 -125 28 -336
139 -526 275 -41 29 -79 53 -85 53 -6 0 -29 -14 -51 -31z m107 -22 c133 -102
324 -213 449 -263 86 -33 191 -51 394 -64 244 -16 341 -37 470 -103 102 -51
207 -170 242 -273 l16 -46 45 7 c25 4 91 7 147 6 449 -2 806 -255 946 -670 47
-138 59 -228 69 -506 5 -144 10 -1603 10 -3272 l0 -3013 -2846 0 -2846 0 5
3142 c5 3175 8 3355 42 3527 52 255 199 480 406 621 73 50 218 115 316 142 66
18 107 21 264 22 l186 1 37 78 c67 143 191 240 376 296 93 28 107 30 298 41
211 13 316 30 416 69 98 38 265 132 392 220 54 38 104 70 111 70 6 1 31 -14
55 -32z"/>
<path d="M3600 8786 c-180 -42 -313 -151 -369 -300 -21 -57 -28 -222 -12 -289
13 -54 68 -142 124 -197 41 -41 45 -49 32 -60 -10 -8 -15 -30 -15 -61 0 -47 1
-49 28 -49 35 0 56 -14 49 -33 -3 -8 3 -31 14 -51 18 -35 18 -37 2 -43 -42
-16 -82 -45 -77 -57 7 -19 68 -5 138 32 32 18 66 32 75 32 36 -1 126 -39 129
-55 5 -23 -29 -47 -46 -33 -15 13 -27 4 -17 -11 9 -15 48 -14 67 2 9 6 18 23
20 37 2 18 14 30 43 43 l39 19 71 -38 c38 -21 73 -42 77 -48 5 -7 8 -6 8 2 0
8 -13 27 -30 42 -16 15 -30 30 -30 33 0 2 18 16 40 31 28 18 43 36 47 57 3 18
17 36 35 47 25 14 29 21 24 46 -7 34 -33 66 -53 66 -21 0 -16 10 37 66 28 30
65 84 83 121 28 60 32 80 35 173 5 121 -4 159 -59 252 -96 163 -330 266 -509
224z m248 -40 c129 -44 210 -117 271 -245 34 -72 36 -81 35 -178 0 -96 -2
-105 -37 -175 -54 -110 -112 -170 -212 -219 -241 -120 -528 -23 -646 217 -33
66 -34 73 -33 179 0 105 2 113 35 180 47 97 128 177 222 220 131 61 231 66
365 21z m190 -858 c4 -32 -20 -52 -53 -44 -20 5 -25 13 -25 35 0 16 7 37 16
46 14 14 19 14 38 2 11 -8 22 -25 24 -39z m-593 28 c17 -12 18 -17 7 -40 -14
-32 -37 -42 -57 -26 -15 13 -21 61 -8 73 11 11 38 8 58 -7z m493 -38 c4 -32
-18 -54 -68 -69 -35 -11 -43 -10 -59 5 -18 17 -19 16 -26 -3 -5 -18 -15 -21
-58 -21 -32 0 -62 6 -75 16 -17 12 -26 13 -36 5 -10 -9 -27 -9 -61 -1 -71 16
-85 26 -85 62 0 33 -3 33 80 3 83 -31 288 -16 350 25 22 14 35 7 38 -22z m55
-67 c4 -4 -2 -19 -13 -34 -25 -32 -100 -62 -135 -53 -16 4 -39 -1 -63 -13 -40
-20 -104 -17 -149 7 -13 7 -38 10 -61 6 -52 -8 -109 16 -118 51 -9 38 8 52 43
35 92 -43 361 -41 425 3 22 15 53 14 71 -2z"/>
<path d="M3536 8696 c-134 -56 -223 -158 -246 -282 -38 -198 44 -365 217 -446
56 -27 81 -32 153 -34 l85 -3 -87 9 c-116 11 -197 50 -269 128 -64 70 -86 117
-94 207 -18 183 60 322 224 402 51 26 66 28 171 28 110 0 118 -1 182 -33 71
-35 139 -100 186 -181 25 -43 27 -54 27 -166 0 -115 -1 -122 -30 -174 -57
-103 -156 -177 -268 -201 l-42 -9 43 3 c99 9 217 95 273 198 33 62 34 65 34
183 0 108 -2 125 -25 169 -38 74 -118 152 -197 189 -61 29 -78 32 -173 35 -93
2 -112 0 -164 -22z"/>
<path d="M3500 8473 c0 -12 61 -58 108 -82 23 -12 42 -25 42 -30 0 -5 -24 -7
-54 -4 -46 5 -57 2 -75 -16 -42 -42 -12 -111 47 -111 39 0 52 17 52 67 0 37 3
43 21 43 20 0 21 -4 17 -52 -7 -65 -31 -88 -97 -89 l-46 -1 30 -13 c63 -29
141 -9 164 42 6 13 11 62 11 109 0 64 3 85 13 81 8 -3 12 -34 12 -111 l-1
-108 -32 -29 c-26 -23 -42 -29 -80 -29 -26 0 -63 4 -81 10 -50 14 -26 -5 37
-29 67 -27 129 -27 162 -1 28 22 50 25 68 10 9 -7 9 -7 2 2 -6 7 -10 76 -10
160 l0 148 -32 20 c-28 17 -51 20 -155 20 -68 0 -123 -3 -123 -7z"/>
<path d="M4244 8508 c1 -36 5 -43 26 -49 80 -22 114 -36 124 -51 19 -31 -5
-40 -49 -18 -22 11 -44 19 -49 17 -5 -2 -9 -29 -7 -60 2 -46 -1 -57 -13 -57
-9 0 -16 -7 -16 -15 0 -8 6 -15 14 -15 7 0 19 7 26 15 19 23 39 18 60 -17 25
-42 25 -55 0 -68 -16 -9 -26 -7 -49 10 -16 11 -43 20 -61 20 -28 0 -31 2 -25
23 7 22 7 22 -9 2 -26 -34 -20 -45 27 -45 31 0 49 -6 62 -20 18 -20 18 -21
-17 -58 -38 -39 -83 -107 -98 -147 -15 -39 -6 -30 35 36 20 33 39 58 41 56 2
-2 -5 -25 -16 -51 -12 -25 -24 -65 -28 -89 -5 -28 -13 -43 -25 -45 -11 -2 -17
3 -18 15 0 15 -2 14 -9 -4 -5 -13 -17 -23 -27 -23 -16 -1 -16 -2 2 -16 19 -14
32 -14 83 1 16 5 22 3 22 -7 0 -19 -38 -54 -68 -63 -17 -5 -20 -10 -12 -20 8
-10 19 -4 53 26 23 21 42 44 43 51 3 33 5 38 17 38 7 0 42 28 77 61 85 83 133
103 221 95 37 -3 74 -8 82 -12 16 -6 47 20 47 41 0 18 -37 61 -45 53 -4 -4 0
-19 9 -32 9 -14 16 -28 16 -32 0 -9 -122 4 -132 14 -4 4 -5 24 -1 45 5 31 10
37 29 37 14 0 24 6 24 14 0 22 33 29 46 11 11 -14 18 -15 53 -4 23 7 41 16 41
21 0 5 -9 4 -19 -2 -32 -16 -69 -12 -81 10 -14 26 -50 27 -50 1 0 -12 -10 -21
-26 -25 -32 -8 -56 9 -27 18 14 4 20 15 20 38 0 18 7 36 18 44 18 14 18 14 -1
14 -17 0 -20 5 -16 29 3 21 -2 33 -19 45 -32 22 -39 20 -39 -9 0 -31 -26 -95
-38 -95 -4 0 -17 -8 -28 -18 -39 -36 -51 -34 -69 14 -20 54 -14 87 20 102 44
20 33 55 -27 85 -29 14 -62 27 -73 29 -13 2 -21 12 -23 30 -2 15 -9 31 -16 37
-10 9 -13 2 -12 -31z m110 -137 c10 -15 -6 -71 -20 -71 -20 0 -26 17 -19 50 6
29 28 40 39 21z m204 -44 c3 -22 -1 -27 -17 -27 -21 0 -26 15 -15 45 9 23 29
13 32 -18z m-5 -71 c-2 -34 -29 -66 -54 -66 -10 0 -21 -4 -24 -10 -3 -6 4 -10
17 -10 34 0 48 -18 48 -59 l-1 -36 -30 38 c-28 34 -35 37 -80 37 -52 0 -98
-18 -136 -53 -13 -11 -23 -16 -23 -10 0 20 83 84 148 115 34 16 73 43 84 59
28 37 54 34 51 -5z m-60 -154 c27 -24 17 -42 -38 -63 -27 -10 -51 -19 -52 -19
-1 0 5 12 13 28 7 15 14 35 14 45 0 10 -16 -12 -36 -50 -47 -89 -78 -130 -115
-148 -28 -15 -43 -4 -16 12 36 21 85 104 92 153 5 39 12 53 29 60 28 11 86 2
109 -18z m-163 -45 c0 -12 -17 -49 -37 -81 -35 -54 -38 -57 -41 -33 -4 28 19
80 51 115 25 27 27 27 27 -1z"/>
<path d="M3130 8525 c0 -2 10 -10 23 -16 20 -11 21 -11 8 4 -13 16 -31 23 -31
12z"/>
<path d="M3080 8511 c0 -5 7 -14 15 -21 22 -19 19 -30 -22 -67 l-38 -33 40 22
c22 12 48 28 58 37 17 14 20 13 38 -9 10 -14 16 -32 13 -40 -4 -11 -2 -12 6
-4 12 12 -5 64 -21 64 -5 0 -24 14 -42 30 -36 31 -47 36 -47 21z"/>
<path d="M4192 8480 c0 -19 2 -27 5 -17 2 9 2 25 0 35 -3 9 -5 1 -5 -18z"/>
<path d="M4453 8380 c-17 -21 -23 -41 -23 -80 0 -31 4 -49 10 -45 6 3 10 23
10 43 0 20 9 52 20 70 11 18 20 35 20 37 0 13 -17 1 -37 -25z"/>
<path d="M4237 8393 c-2 -5 -1 -19 4 -33 4 -15 7 -18 8 -8 1 9 4 23 7 32 6 16
-11 23 -19 9z"/>
<path d="M3021 8344 c-8 -28 -7 -41 3 -56 13 -18 14 -17 19 14 2 18 0 36 -5
39 -5 3 -6 13 -2 22 3 9 4 17 1 17 -4 0 -11 -16 -16 -36z"/>
<path d="M3155 8370 c-3 -5 -24 -10 -45 -10 -21 0 -42 -4 -45 -10 -3 -6 5 -10
19 -10 23 0 25 -3 20 -32 -10 -56 -13 -61 -38 -56 -18 4 -27 -1 -36 -20 -11
-25 -11 -25 14 -8 31 20 50 20 66 1 7 -8 20 -15 29 -15 14 1 14 2 -1 11 -10 5
-18 15 -18 21 0 6 8 17 18 25 9 8 11 12 5 8 -9 -4 -13 4 -13 30 0 20 3 34 8
31 4 -2 12 7 19 20 11 24 10 33 -2 14z"/>
<path d="M2937 8342 c17 -18 35 -32 39 -32 11 0 -28 40 -51 53 -12 6 -7 -2 12
-21z"/>
<path d="M2850 8341 c0 -5 16 -19 35 -31 19 -12 35 -23 35 -25 0 -1 7 -18 15
-37 14 -35 14 -35 -11 -30 -13 2 -33 15 -43 28 -10 13 -26 24 -36 24 -27 0 18
-50 65 -71 29 -13 40 -24 43 -46 2 -15 5 -3 6 28 2 94 -6 117 -54 144 -45 27
-55 30 -55 16z"/>
<path d="M4630 8283 c8 -3 30 -22 49 -42 21 -22 36 -31 38 -23 3 6 13 12 24
12 10 0 19 4 19 9 0 14 -27 20 -38 9 -8 -8 -20 -3 -42 16 -17 14 -39 26 -48
25 -14 0 -14 -2 -2 -6z"/>
<path d="M2720 8223 c-8 -3 -23 -13 -33 -21 -15 -13 -22 -14 -37 -4 -21 13
-50 16 -50 6 0 -13 36 -33 59 -34 14 0 35 10 47 21 13 12 38 25 56 29 l33 8
-30 0 c-16 0 -37 -2 -45 -5z"/>
<path d="M2810 8205 c0 -14 -6 -25 -12 -25 -7 0 -32 -17 -55 -38 l-42 -37 37
-30 37 -30 -23 29 c-12 16 -22 33 -22 37 0 17 27 9 50 -16 19 -20 21 -27 10
-40 -10 -12 -10 -15 3 -15 9 0 19 9 22 20 3 11 11 20 16 20 5 0 9 7 9 15 0 7
8 19 18 24 16 10 15 12 -8 30 -19 15 -24 27 -22 50 2 18 -1 31 -7 31 -6 0 -11
-11 -11 -25z m24 -67 c8 -13 7 -21 -4 -32 -13 -13 -19 -12 -44 9 -17 13 -26
28 -21 34 10 17 56 9 69 -11z"/>
<path d="M2590 8175 c0 -5 16 -26 36 -46 36 -37 36 -37 15 -51 -27 -16 -27
-40 -1 -63 17 -15 44 -20 128 -25 112 -7 169 -26 256 -85 l37 -25 -38 54 c-21
30 -40 52 -42 50 -2 -2 2 -10 9 -19 23 -28 4 -26 -58 5 -33 16 -66 30 -71 30
-19 0 -12 28 11 44 12 9 37 16 55 16 26 0 33 4 33 20 0 33 -58 14 -113 -37
-39 -36 -53 -43 -75 -39 -15 3 -46 8 -69 11 -47 7 -51 17 -28 61 14 28 14 29
-21 50 -19 12 -41 30 -49 40 -8 10 -15 15 -15 9z"/>
<path d="M3062 8145 c-11 -14 -23 -48 -27 -75 -6 -42 -3 -56 22 -102 15 -29
38 -57 51 -63 29 -13 22 -30 -12 -30 l-27 1 21 -16 c20 -15 20 -18 7 -32 -13
-13 -13 -16 2 -25 15 -10 17 -8 14 12 -3 15 5 33 25 56 l31 34 34 -37 c31 -34
40 -38 86 -38 63 0 67 15 5 25 -32 4 -57 17 -85 42 -21 19 -39 30 -39 24 0 -6
-7 -11 -15 -11 -10 0 -15 10 -15 28 -1 37 -33 106 -60 125 -27 19 -23 52 7 51
13 0 19 4 16 13 -7 18 22 17 37 -2 23 -28 31 -15 8 15 -27 37 -60 39 -86 5z
m49 -178 c11 -41 8 -54 -11 -42 -16 10 -49 84 -50 109 0 18 2 18 25 -4 14 -13
30 -41 36 -63z"/>
<path d="M4630 8140 c0 -5 5 -10 10 -10 6 0 10 5 10 10 0 6 -4 10 -10 10 -5 0
-10 -4 -10 -10z"/>
<path d="M2572 8104 c-22 -15 -57 -72 -49 -80 2 -3 10 10 17 27 8 17 27 40 44
50 17 10 26 19 21 19 -6 0 -21 -7 -33 -16z"/>
<path d="M4735 8090 c10 -11 20 -20 22 -20 2 0 -1 9 -7 20 -6 11 -16 20 -22
20 -6 0 -3 -9 7 -20z"/>
<path d="M4760 8049 c0 -9 -10 -21 -22 -27 -14 -6 -17 -11 -8 -11 26 -1 50 23
39 40 -7 12 -9 12 -9 -2z"/>
<path d="M3146 8035 c3 -11 9 -30 11 -42 3 -13 9 -23 14 -23 13 0 10 11 -12
50 -11 19 -17 26 -13 15z"/>
<path d="M4810 8003 c25 -32 40 -41 40 -24 0 5 -15 20 -32 33 l-33 23 25 -32z"/>
<path d="M2520 7961 c0 -5 7 -11 15 -15 9 -3 15 0 15 9 0 8 -7 15 -15 15 -8 0
-15 -4 -15 -9z"/>
<path d="M4550 7960 c88 -12 125 -34 158 -95 6 -11 12 -15 12 -8 0 21 -63 85
-97 99 -18 8 -54 13 -80 13 l-48 -2 55 -7z"/>
<path d="M2461 7913 c-43 -52 -49 -65 -30 -72 7 -2 9 1 5 8 -4 6 11 33 34 61
23 28 39 50 37 50 -3 0 -24 -21 -46 -47z"/>
<path d="M4790 7950 c0 -5 11 -12 25 -16 14 -3 34 -18 45 -32 11 -14 23 -22
27 -19 3 4 -5 16 -18 27 -34 29 -79 52 -79 40z"/>
<path d="M5035 7950 c3 -5 11 -10 16 -10 6 0 7 5 4 10 -3 6 -11 10 -16 10 -6
0 -7 -4 -4 -10z"/>
<path d="M2247 7937 c-4 -10 -27 -16 -76 -19 -39 -2 -76 -9 -83 -16 -11 -11
-8 -11 15 -3 16 6 51 11 78 11 28 0 59 5 70 10 28 16 36 -13 15 -56 -19 -41
-44 -54 -61 -31 -16 23 -35 21 -35 -2 0 -13 11 -23 36 -31 39 -13 44 -10 81
58 16 29 16 35 3 59 -18 31 -35 39 -43 20z"/>
<path d="M2713 7943 c20 -2 54 -2 75 0 20 2 3 4 -38 4 -41 0 -58 -2 -37 -4z"/>
<path d="M5088 7943 c7 -3 16 -2 19 1 4 3 -2 6 -13 5 -11 0 -14 -3 -6 -6z"/>
<path d="M4377 7904 c-50 -39 -66 -59 -19 -25 49 37 77 61 71 61 -3 0 -27 -16
-52 -36z"/>
<path d="M5215 7914 c0 -25 9 -31 21 -13 7 11 54 8 89 -6 16 -6 17 -5 9 4 -6
7 -31 15 -55 18 -24 3 -48 9 -54 14 -6 4 -10 -2 -10 -17z"/>
<path d="M2628 7913 c-19 -23 -31 -43 -24 -43 2 0 14 14 26 30 23 33 22 40 -2
13z"/>
<path d="M2870 7920 c8 -5 20 -10 25 -10 6 0 3 5 -5 10 -8 5 -19 10 -25 10 -5
0 -3 -5 5 -10z"/>
<path d="M5118 7891 c-7 -11 -18 -21 -25 -21 -7 0 -17 -9 -23 -19 -15 -30 -12
-33 10 -11 11 11 26 20 34 20 21 0 41 29 28 42 -7 7 -14 4 -24 -11z"/>
<path d="M2931 7896 c10 -9 69 -36 69 -32 0 6 -55 36 -66 36 -4 0 -5 -2 -3 -4z"/>
<path d="M2052 7868 c-14 -14 -16 -35 -3 -42 5 -3 11 8 13 24 3 17 4 30 3 30
0 0 -6 -5 -13 -12z"/>
<path d="M2749 7851 c-37 -38 -41 -88 -6 -96 13 -4 30 -5 37 -3 26 5 22 -37
-5 -62 -19 -18 -37 -24 -65 -24 -79 2 -126 61 -117 147 3 36 2 45 -5 32 -6 -9
-8 -40 -5 -68 4 -42 10 -56 40 -83 19 -18 55 -38 79 -45 38 -10 47 -9 78 9 41
23 64 64 56 98 -7 26 -43 33 -63 13 -17 -17 -43 -3 -43 21 0 34 19 61 53 75
20 9 25 14 14 15 -10 0 -32 -13 -48 -29z"/>
<path d="M4815 7868 c22 -15 50 -42 121 -118 28 -30 59 -62 70 -70 10 -8 -18
26 -63 75 -46 50 -83 96 -83 103 0 6 -6 12 -14 12 -8 0 -23 2 -33 5 -16 5 -16
4 2 -7z"/>
<path d="M4465 7859 c-12 -6 -27 -20 -34 -32 -11 -18 -8 -17 18 6 38 31 89 36
136 11 28 -14 29 -14 13 2 -20 20 -104 28 -133 13z"/>
<path d="M5341 7851 c-12 -22 -5 -27 19 -11 11 7 12 12 3 21 -8 8 -14 6 -22
-10z"/>
<path d="M1954 7838 l-19 -23 25 20 c14 11 27 21 29 22 2 2 0 3 -6 3 -5 0 -18
-10 -29 -22z"/>
<path d="M2008 7853 c7 -3 16 -2 19 1 4 3 -2 6 -13 5 -11 0 -14 -3 -6 -6z"/>
<path d="M2469 7838 c-11 -13 -46 -57 -78 -99 -78 -101 -136 -139 -212 -139
-47 0 -63 5 -88 25 -39 34 -46 57 -26 95 11 21 23 30 40 30 29 0 40 -15 37
-52 -3 -39 15 -35 21 5 6 41 -7 65 -39 73 -35 9 -73 -14 -92 -53 -14 -30 -14
-36 1 -68 9 -18 27 -41 40 -50 39 -25 120 -30 171 -11 51 20 139 101 181 166
16 25 40 57 54 73 14 15 21 27 18 27 -4 0 -17 -10 -28 -22z"/>
<path d="M3010 7856 c0 -3 14 -12 30 -21 17 -9 30 -13 30 -11 0 3 -13 12 -30
21 -16 9 -30 13 -30 11z"/>
<path d="M2919 7822 c10 -19 17 -43 14 -55 -4 -21 -4 -21 11 -3 9 12 11 22 5
30 -5 6 -18 22 -29 36 l-21 25 20 -33z"/>
<path d="M4718 7802 c-3 -23 -14 -54 -23 -68 -21 -33 -73 -64 -107 -64 -50 0
-86 58 -56 88 19 19 38 14 48 -14 9 -23 12 -24 27 -13 15 13 15 14 -1 17 -9 2
-21 15 -26 28 -18 45 -70 21 -85 -38 -6 -22 -1 -33 23 -58 25 -25 39 -30 76
-30 63 0 122 51 131 115 4 23 5 51 3 61 -2 11 -7 0 -10 -24z"/>
<path d="M5400 7822 c6 -13 14 -21 18 -18 3 4 -2 14 -12 24 -18 16 -18 16 -6
-6z"/>
<path d="M5213 7820 c-30 -12 -40 -54 -19 -76 9 -8 13 -20 10 -26 -4 -6 2 -5
15 1 25 14 27 27 6 35 -8 3 -15 12 -15 21 0 19 70 21 88 3 16 -16 15 -53 -3
-92 -17 -35 -45 -56 -90 -67 l-30 -7 29 -1 c62 -2 126 71 126 142 -1 52 -65
89 -117 67z"/>
<path d="M4622 7785 c0 -16 2 -22 5 -12 2 9 2 23 0 30 -3 6 -5 -1 -5 -18z"/>
<path d="M2262 7760 c0 -19 2 -27 5 -17 2 9 2 25 0 35 -3 9 -5 1 -5 -18z"/>
<path d="M2516 7775 c-3 -11 -20 -46 -36 -77 -16 -32 -28 -58 -26 -58 2 0 20
25 40 56 23 34 36 64 33 77 -3 21 -4 21 -11 2z"/>
<path d="M2980 7764 c-6 -14 -10 -38 -10 -52 0 -35 -26 -72 -51 -72 -21 0 -26
-16 -6 -23 20 -6 66 34 76 67 17 57 22 106 11 106 -6 0 -15 -12 -20 -26z"/>
<path d="M4407 7784 c-8 -8 1 -24 14 -24 5 0 9 7 9 15 0 15 -12 20 -23 9z"/>
<path d="M5420 7749 c0 -26 -8 -57 -20 -76 -28 -46 -16 -41 19 7 25 35 28 45
21 72 -14 47 -20 46 -20 -3z"/>
<path d="M4353 7765 c-15 -16 -17 -35 -5 -35 5 0 17 -18 27 -39 10 -22 29 -50
42 -63 l25 -23 -21 35 c-11 19 -21 44 -21 56 0 11 -9 29 -20 39 -15 14 -17 21
-9 32 15 18 -3 16 -18 -2z"/>
<path d="M1920 7761 c0 -13 28 -33 41 -29 6 2 0 12 -15 21 -14 10 -26 13 -26
8z"/>
<path d="M4810 7751 c0 -11 -2 -25 -3 -33 -2 -7 -2 -10 0 -5 9 14 20 6 49 -36
32 -44 116 -107 143 -107 9 0 -2 9 -24 19 -47 21 -120 98 -141 147 -16 38 -24
43 -24 15z"/>
<path d="M5484 7754 c-10 -8 -12 -12 -4 -8 8 4 30 11 50 15 35 7 35 7 4 8 -16
0 -39 -6 -50 -15z"/>
<path d="M5098 7731 c24 -23 41 -31 65 -30 l32 2 -30 4 c-16 3 -46 16 -65 30
l-35 25 33 -31z"/>
<path d="M5570 7739 c0 -18 2 -19 15 -9 15 12 12 30 -6 30 -5 0 -9 -10 -9 -21z"/>
<path d="M5638 7753 c7 -3 16 -2 19 1 4 3 -2 6 -13 5 -11 0 -14 -3 -6 -6z"/>
<path d="M3128 7723 c-18 -20 -19 -25 -7 -39 18 -22 71 -44 105 -44 15 0 32
-7 38 -16 10 -13 12 -10 14 17 2 26 0 30 -12 20 -27 -22 -146 10 -146 40 0 5
19 18 43 28 37 16 39 18 14 17 -16 0 -38 -11 -49 -23z"/>
<path d="M4193 7727 c7 -19 -5 -28 -53 -38 l-35 -7 35 -1 c52 -1 90 35 58 55
-8 5 -9 2 -5 -9z"/>
<path d="M5724 7698 c20 -23 36 -47 36 -53 0 -21 41 -65 60 -65 18 0 56 58 45
68 -3 3 -5 0 -5 -6 0 -6 -6 -9 -14 -6 -9 3 -17 -3 -21 -15 -8 -26 -21 -27 -34
-2 -8 15 -6 22 12 35 l22 17 -24 -12 c-22 -10 -27 -8 -52 22 -16 19 -29 37
-29 40 0 4 -7 10 -16 13 -8 3 1 -13 20 -36z"/>
<path d="M2242 7700 c-7 -11 -8 -20 -3 -20 9 0 24 30 18 36 -1 2 -8 -6 -15
-16z"/>
<path d="M4072 7688 c-7 -7 -12 -20 -12 -29 0 -10 -10 -25 -22 -33 -12 -9 -19
-18 -16 -21 8 -8 68 63 68 80 0 18 -3 18 -18 3z"/>
<path d="M1653 7683 c9 -2 25 -2 35 0 9 3 1 5 -18 5 -19 0 -27 -2 -17 -5z"/>
<path d="M1728 7679 c-10 -5 -18 -14 -18 -19 0 -17 15 -11 28 10 14 23 13 23
-10 9z"/>
<path d="M2540 7679 c0 -5 14 -24 30 -42 35 -41 40 -72 10 -62 -16 5 -20 2
-20 -18 0 -22 36 -67 54 -67 4 0 -6 11 -21 24 -30 26 -31 24 22 41 28 8 15 45
-30 88 -25 24 -45 40 -45 36z"/>
<path d="M4775 7663 c-10 -15 -26 -33 -35 -40 -25 -18 -31 -51 -13 -69 20 -19
57 -14 61 9 3 15 -1 17 -22 11 -35 -8 -33 7 6 62 17 24 29 46 26 49 -3 3 -13
-7 -23 -22z"/>
<path d="M5554 7671 c-17 -10 -41 -32 -53 -47 -34 -44 -72 -64 -118 -64 -38 0
-43 3 -44 23 -1 21 -1 20 -10 -4 -5 -15 -20 -32 -32 -38 -16 -9 -17 -10 -2 -4
11 4 43 8 72 9 60 2 118 32 172 88 26 27 43 36 68 36 46 0 55 -26 20 -56 -15
-13 -27 -27 -27 -32 0 -11 43 -52 54 -52 5 0 -3 9 -18 21 -32 25 -33 36 -3 45
44 14 52 64 12 82 -36 16 -55 15 -91 -7z"/>
<path d="M1879 7650 c13 -11 30 -20 38 -20 11 0 7 7 -10 20 -33 26 -60 26 -28
0z"/>
<path d="M5050 7651 c14 -11 30 -21 35 -21 11 0 -7 14 -40 31 -13 7 -12 3 5
-10z"/>
<path d="M1494 7630 c-31 -12 -34 -21 -18 -58 11 -28 18 -33 41 -30 32 4 44
28 14 28 -12 0 -21 5 -21 10 0 6 -10 14 -22 19 -22 8 -21 9 12 18 19 5 30 12
25 15 -6 3 -20 2 -31 -2z"/>
<path d="M1552 7628 c-14 -14 -16 -38 -3 -38 5 0 11 11 13 25 6 29 6 29 -10
13z"/>
<path d="M1711 7633 c0 -7 -12 -24 -26 -39 -14 -15 -25 -30 -25 -35 0 -25 15
-39 42 -39 19 0 28 -4 25 -12 -2 -8 -22 -13 -49 -13 -26 0 -44 -3 -41 -7 9
-16 80 -8 96 10 20 22 24 73 5 54 -12 -12 -48 -17 -48 -6 0 19 24 43 50 49 25
6 43 -1 99 -34 47 -29 78 -41 102 -40 l34 1 -35 7 c-19 4 -54 21 -78 39 -49
35 -106 57 -127 48 -8 -3 -16 2 -18 12 -3 9 -5 12 -6 5z"/>
<path d="M2395 7578 c-28 -28 -38 -42 -23 -31 25 19 84 83 76 83 -2 0 -26 -23
-53 -52z"/>
<path d="M4464 7615 c-17 -13 -17 -14 -2 -15 9 0 20 5 23 11 11 17 0 20 -21 4z"/>
<path d="M5108 7618 c6 -6 18 -8 28 -6 14 3 12 5 -9 10 -19 3 -25 2 -19 -4z"/>
<path d="M3370 7595 c0 -8 4 -15 9 -15 5 0 17 -3 27 -7 14 -5 13 -2 -4 15 -26
26 -32 27 -32 7z"/>
<path d="M3940 7590 c-46 -25 -34 -25 21 0 24 11 37 19 29 19 -8 0 -31 -8 -50
-19z"/>
<path d="M5890 7601 c0 -6 4 -13 10 -16 6 -3 7 1 4 9 -7 18 -14 21 -14 7z"/>
<path d="M3297 7589 c7 -7 15 -10 18 -7 3 3 -2 9 -12 12 -14 6 -15 5 -6 -5z"/>
<path d="M5046 7593 c-13 -13 117 -65 172 -68 l57 -4 -59 9 c-32 5 -82 23
-111 39 -29 17 -55 27 -59 24z"/>
<path d="M1405 7562 c-47 -18 -50 -20 -43 -27 5 -5 88 32 88 40 0 3 -1 5 -2 4
-2 -1 -21 -8 -43 -17z"/>
<path d="M2730 7574 c0 -16 55 -74 70 -74 7 0 3 8 -8 18 -12 9 -30 28 -41 42
-11 14 -20 20 -21 14z"/>
<path d="M5945 7569 c-4 -6 -5 -13 -2 -16 7 -7 27 6 27 18 0 12 -17 12 -25 -2z"/>
<path d="M2913 7558 c-23 -30 -24 -41 -2 -21 12 12 20 25 17 28 -3 3 -10 0
-15 -7z"/>
<path d="M3438 7558 c5 -5 16 -8 23 -6 8 3 3 7 -10 11 -17 4 -21 3 -13 -5z"/>
<path d="M3853 7545 c-28 -32 -12 -32 24 0 18 16 23 24 13 25 -8 0 -25 -12
-37 -25z"/>
<path d="M4610 7552 c0 -11 11 -24 25 -30 l25 -12 -22 30 c-26 35 -28 36 -28
12z"/>
<path d="M5751 7550 c-13 -11 -37 -21 -55 -21 -29 -2 -29 -2 -4 -6 15 -2 40 3
57 12 29 14 33 14 58 -2 l28 -17 -28 27 c-15 15 -29 27 -30 27 -1 -1 -13 -10
-26 -20z"/>
<path d="M1990 7552 c0 -5 15 -19 33 -32 l32 -23 -29 31 c-31 34 -36 37 -36
24z"/>
<path d="M3494 7545 c21 -16 32 -13 21 4 -3 6 -14 11 -23 11 -15 -1 -15 -2 2
-15z"/>
<path d="M4495 7540 c10 -11 20 -20 23 -20 3 0 -3 9 -13 20 -10 11 -20 20 -23
20 -3 0 3 -9 13 -20z"/>
<path d="M1576 7542 c-3 -6 -1 -14 5 -17 14 -9 20 -2 10 14 -6 8 -11 9 -15 3z"/>
<path d="M5915 7530 c-3 -5 -1 -10 4 -10 6 0 11 5 11 10 0 6 -2 10 -4 10 -3 0
-8 -4 -11 -10z"/>
<path d="M2194 7515 c-4 -11 -9 -24 -12 -30 -3 -5 1 -4 9 3 7 6 22 12 34 13
14 0 16 2 5 6 -8 3 -18 11 -22 17 -4 6 -10 3 -14 -9z"/>
<path d="M3538 7518 c5 -5 16 -8 23 -6 8 3 3 7 -10 11 -17 4 -21 3 -13 -5z"/>
<path d="M3620 7520 c0 -5 5 -10 10 -10 6 0 10 5 10 10 0 6 -4 10 -10 10 -5 0
-10 -4 -10 -10z"/>
<path d="M3751 7503 c-19 -12 -28 -23 -20 -23 16 0 66 37 59 43 -3 2 -20 -7
-39 -20z"/>
<path d="M4568 7513 c6 -2 18 -2 25 0 6 3 1 5 -13 5 -14 0 -19 -2 -12 -5z"/>
<path d="M2268 7503 c6 -2 18 -2 25 0 6 3 1 5 -13 5 -14 0 -19 -2 -12 -5z"/>
<path d="M2725 7501 c-6 -6 -30 -11 -55 -14 l-45 -4 46 -1 c31 -1 51 3 59 13
14 16 10 21 -5 6z"/>
<path d="M3662 7495 c9 -10 21 -16 28 -13 7 2 -1 10 -16 17 -27 12 -28 11 -12
-4z"/>
<path d="M4688 7503 c12 -2 32 -2 45 0 12 2 2 4 -23 4 -25 0 -35 -2 -22 -4z"/>
<path d="M1710 705 c-7 -9 -10 -18 -6 -22 3 -3 6 -1 6 5 0 7 9 12 21 12 11 0
17 5 14 10 -9 14 -21 12 -35 -5z"/>
<path d="M1912 668 c-6 -23 -9 -44 -7 -46 2 -2 9 15 15 38 6 23 9 44 7 46 -2
3 -9 -14 -15 -38z"/>
<path d="M1760 665 c0 -16 30 -35 55 -35 22 0 11 16 -25 34 -25 12 -30 12 -30
1z"/>
<path d="M1668 658 c-39 -13 -35 -27 7 -25 19 1 35 7 35 14 0 18 -12 21 -42
11z"/>
<path d="M1655 589 c-11 -17 1 -21 15 -4 8 9 8 15 2 15 -6 0 -14 -5 -17 -11z"/>
<path d="M2127 563 c-14 -13 -6 -23 19 -23 22 0 25 2 14 15 -14 16 -23 19 -33
8z"/>
<path d="M1400 519 c0 -6 9 -13 20 -16 25 -7 26 -39 3 -66 -18 -20 -18 -20 15
-2 38 23 39 31 7 68 -25 28 -45 35 -45 16z"/>
<path d="M1303 507 c9 -8 17 -25 17 -38 l0 -24 14 25 c15 28 11 35 -24 44 -23
6 -23 6 -7 -7z"/>
<path d="M1370 471 c-13 -26 -13 -31 5 -31 9 0 15 9 15 25 0 30 -6 32 -20 6z"/>
<path d="M1285 430 c-3 -5 -1 -10 4 -10 6 0 11 5 11 10 0 6 -2 10 -4 10 -3 0
-8 -4 -11 -10z"/>
<path d="M2445 408 c-4 -18 -12 -39 -17 -45 -8 -10 -5 -13 12 -13 19 0 21 4
15 32 -6 28 -5 30 11 23 38 -16 79 -16 99 0 20 16 20 16 -2 6 -35 -17 -71 -13
-83 9 -15 29 -27 25 -35 -12z"/>
<path d="M4955 668 c-28 -29 -41 -48 -30 -44 11 5 27 10 36 13 8 2 20 18 27
35 9 24 16 29 32 25 24 -6 27 8 4 17 -19 7 -11 13 -69 -46z"/>
<path d="M4940 585 c-7 -8 -8 -15 -2 -15 5 0 15 7 22 15 7 8 8 15 2 15 -5 0
-15 -7 -22 -15z"/>
<path d="M5216 555 c-4 -11 1 -15 19 -15 28 0 33 15 9 24 -21 8 -21 8 -28 -9z"/>
<path d="M4653 476 l-21 -45 26 -17 c20 -13 29 -14 44 -5 10 6 25 11 33 11 21
0 19 4 -15 42 -16 18 -30 38 -30 45 0 25 -15 12 -37 -31z m52 -16 c7 -23 -1
-40 -20 -40 -19 0 -27 17 -20 40 8 26 32 26 40 0z"/>
<path d="M1054 685 c-9 -14 -22 -25 -29 -25 -7 0 -19 -7 -26 -17 -13 -15 -11
-16 16 -9 34 9 55 23 55 39 0 5 8 16 18 23 16 13 16 13 0 14 -10 0 -25 -11
-34 -25z"/>
<path d="M1110 660 c0 -5 14 -16 30 -25 36 -19 40 -4 5 19 -28 19 -35 20 -35
6z"/>
<path d="M1130 601 c0 -5 5 -13 10 -16 6 -3 10 -2 10 4 0 5 -4 13 -10 16 -5 3
-10 2 -10 -4z"/>
<path d="M1010 590 c0 -5 5 -10 10 -10 6 0 10 5 10 10 0 6 -4 10 -10 10 -5 0
-10 -4 -10 -10z"/>
<path d="M3670 681 c0 -5 8 -12 18 -15 9 -3 22 -16 27 -28 8 -16 21 -22 54
-25 55 -5 53 19 -3 28 -20 3 -46 16 -57 27 -21 23 -39 29 -39 13z"/>
<path d="M470 781 c-6 -16 -9 -39 -5 -51 9 -28 -39 -108 -73 -122 -16 -6 -22
-12 -14 -15 19 -7 61 24 84 63 11 19 26 34 34 34 8 0 14 5 14 11 0 5 -4 8 -9
5 -5 -3 -12 1 -15 10 -11 29 -6 54 14 66 25 16 26 28 1 28 -11 0 -23 -12 -31
-29z"/>
<path d="M5635 710 c-3 -5 3 -10 15 -10 12 0 18 5 15 10 -3 6 -10 10 -15 10
-5 0 -12 -4 -15 -10z"/>
<path d="M6280 700 c0 -5 6 -10 14 -10 8 0 17 -8 20 -18 7 -20 76 -58 76 -42
0 6 -15 20 -34 31 -19 11 -37 26 -40 34 -6 17 -36 21 -36 5z"/>
<path d="M5582 655 c-16 -9 -20 -14 -10 -18 16 -5 48 10 48 23 0 13 -9 11 -38
-5z"/>
<path d="M5670 656 c0 -9 6 -16 13 -16 6 0 23 -3 37 -6 22 -6 23 -5 10 9 -24
24 -60 31 -60 13z"/>
<path d="M6238 654 c-32 -17 -37 -35 -8 -27 20 5 46 30 39 37 -2 2 -16 -2 -31
-10z"/>
<path d="M5880 611 c0 -18 -8 -34 -22 -44 l-23 -15 23 -21 c29 -28 28 -43 -7
-80 -16 -18 -23 -31 -16 -31 16 0 65 56 65 74 0 7 -9 21 -19 30 -21 19 -18 46
6 46 8 0 13 8 11 18 -2 11 3 26 11 35 12 15 11 17 -8 17 -16 0 -21 -6 -21 -29z"/>
<path d="M5700 602 c0 -5 10 -17 22 -28 l21 -19 -18 28 c-18 28 -25 33 -25 19z"/>
<path d="M443 573 c-7 -2 -13 -9 -13 -15 0 -6 6 -8 14 -5 11 4 16 -3 18 -26 2
-23 14 -39 46 -64 46 -35 86 -42 116 -20 15 11 12 12 -24 9 -71 -7 -146 58
-109 95 23 23 -12 41 -48 26z"/>
<path d="M640 520 c0 -29 5 -42 19 -50 25 -13 38 4 21 25 -7 8 -9 26 -6 40 5
20 3 25 -14 25 -17 0 -20 -7 -20 -40z"/>
<path d="M5947 524 c-13 -13 -7 -23 13 -21 11 1 19 6 17 11 -4 13 -21 18 -30
10z"/>
<path d="M736 489 c-28 -33 -31 -44 -16 -54 6 -3 10 3 10 14 0 11 11 28 25 37
14 9 25 20 25 25 0 18 -19 8 -44 -22z"/>
<path d="M6035 500 c-3 -5 -3 -15 1 -21 6 -11 23 6 24 24 0 10 -18 9 -25 -3z"/>
<path d="M5919 464 c-15 -29 -15 -31 1 -27 10 3 21 0 24 -6 4 -6 15 -11 24
-10 13 0 12 3 -5 11 -13 6 -23 22 -25 37 l-3 26 -16 -31z"/>
<path d="M5993 461 c1 -22 12 -28 21 -12 3 5 -1 14 -9 21 -11 9 -14 8 -12 -9z"/>
<path d="M6090 426 c0 -9 40 -13 46 -5 3 5 -6 9 -20 9 -14 0 -26 -2 -26 -4z"/>
</g>
</svg>
